<?xml version="1.0" encoding="UTF-8" standalone="no"?>
<!-- Created with Inkscape (http://www.inkscape.org/) -->

<svg
   width="91.815598mm"
   height="91.815598mm"
   viewBox="0 0 347.01959 347.01959"
   version="1.1"
   id="svg1"
   xmlns="http://www.w3.org/2000/svg"
   xmlns:svg="http://www.w3.org/2000/svg">
  <defs
     id="defs1" />
  <g
     id="layer1"
     transform="translate(-93.774691,-259.93467)">
    <g
       id="g35"
       transform="translate(-36.089046,1.1277827)">
      <path
         id="path32"
         style="fill:#00d455;stroke:none;stroke-width:1.06562"
         d="m 226.01172,299.58594 c -3.39468,0.0283 -6.78786,0.29152 -10.12155,0.95088 -11.3891,2.00115 -22.31577,6.64022 -31.58191,13.57078 -3.92604,2.85559 -7.52868,6.15833 -10.61024,9.91487 -7.81496,9.42342 -14.6957,19.63629 -20.29193,30.53113 -7.49567,14.43018 -12.94737,29.9322 -15.95359,45.91892 -1.26836,6.7756 -2.22559,13.61887 -2.67988,20.4987 -0.27835,7.43692 -0.32665,14.88786 -0.038,22.32518 1.49434,20.595 6.48301,40.98911 15.18946,59.73805 10.59061,22.98648 26.45495,43.49363 45.94133,59.63171 0.99474,0.84175 1.98947,1.6835 2.98421,2.52525 0.15747,-3.131 0.31595,-6.26544 0.82472,-9.36359 1.73541,-12.39804 4.88777,-24.5946 9.35497,-36.28876 0.29306,-0.75259 0.69562,-1.77835 1.03419,-2.63543 0.9988,-2.47327 2.12933,-5.07838 3.19042,-7.40558 1.91619,-4.14418 3.9962,-8.21208 6.23828,-12.18946 0.46876,-0.81256 1.06774,-1.87195 1.60417,-2.77098 5.20462,-8.79784 11.2103,-17.12682 17.97395,-24.79347 0.42975,-0.47048 1.07042,-1.18962 1.58109,-1.7555 8.86593,-9.75606 18.84521,-18.50419 29.71969,-25.95918 0.82759,-0.5467 1.52102,-1.25827 2.25586,-1.91813 -0.84518,-1.62478 -1.90104,-3.12056 -2.92187,-4.63672 8.21868,-5.60951 15.44244,-12.72778 20.89143,-21.07098 6.49984,-9.87342 10.52065,-21.33525 11.82357,-33.07177 0.34373,-4.97059 0.32818,-9.96865 0.0305,-14.94127 -0.56068,-5.68113 -1.85211,-11.28504 -3.66698,-16.69404 -2.60609,-7.63093 -6.43943,-14.86156 -11.40149,-21.22284 -2.40502,-2.97041 -5.26117,-5.53071 -7.79032,-8.38973 -0.97606,-1.49987 -2.5112,-2.53462 -3.84582,-3.69916 -8.2891,-6.84443 -18.0865,-11.83095 -28.49344,-14.51954 -4.97181,-1.26828 -10.0614,-2.23217 -15.20896,-2.25396 -2.01002,-0.0588 -4.02131,-0.051 -6.03186,-0.0254 z m 16.58984,42.42773 c 5.16366,0.21609 9.9915,3.92866 11.42161,8.91452 1.49175,4.80919 0.0748,10.48379 -3.8212,13.76219 -4.56113,3.9792 -11.96915,4.14732 -16.64129,0.26229 -3.57965,-2.81999 -5.27025,-7.63902 -4.56935,-12.10126 0.57129,-4.3942 3.66005,-8.32037 7.78821,-9.92481 1.83013,-0.80129 3.84287,-1.00915 5.82202,-0.91293 z" />
      <path
         id="path29"
         style="fill:#ffdd55;stroke:none;stroke-width:2.13124"
         d="m 296.29492,338.28711 c 0.55384,1.8583 1.54901,3.56315 2.29447,5.35279 6.61302,15.08364 7.74998,32.35231 3.89373,48.31052 -0.80247,3.5315 -2.10524,6.91528 -3.13405,10.3801 -0.26698,0.90186 -0.49938,1.91777 0.0675,2.75368 0.11191,0.70567 0.94178,0.62888 1.47637,0.83627 2.97656,0.48869 5.97612,0.8545 8.9743,1.18109 5.96257,0.2445 11.97517,0.032 17.84469,-1.113 15.02514,-2.73608 29.18947,-10.14532 39.8572,-21.09495 7.35104,-7.50385 13.08552,-16.59309 16.68287,-26.46197 0.75045,-2.35675 0.62714,-4.87794 0.49024,-7.31445 -0.49931,-3.75742 -3.00879,-6.93597 -5.90821,-9.22852 -2.44906,-1.99198 -5.65777,-2.78209 -8.76165,-2.84758 -2.94287,0.0599 -5.60053,1.51355 -8.36289,2.35919 -5.75206,1.99455 -11.73018,3.36235 -17.79928,3.89855 -0.67069,0.0574 -1.66248,0.14574 -2.45877,0.1874 -4.58943,0.30727 -9.20616,0.22177 -13.77756,-0.29482 -0.71085,-0.0854 -1.78209,-0.21932 -2.49972,-0.32832 -5.11771,-0.75053 -10.15217,-2.05165 -15.00419,-3.84161 -0.83507,-0.31763 -1.92897,-0.73419 -2.8527,-1.12569 -3.804,-1.60757 -7.46059,-3.5431 -11.30003,-5.07104 -0.66357,-0.36438 -0.009,0.94703 -0.0754,1.34236 0.11771,0.70667 0.23543,1.41333 0.35314,2.12 z" />
      <path
         id="path31"
         style="fill:#c87137;stroke:none;stroke-width:1.06562"
         d="m 360.60742,409.64844 c -9.7462,0.0419 -19.4717,1.13354 -29.04534,2.92435 -25.35913,4.80638 -49.55902,15.55452 -70.14942,31.11411 -20.75182,15.63582 -37.83312,36.11848 -49.4147,59.38271 -8.8884,17.75508 -14.58711,37.097 -16.7837,56.82901 -0.24859,1.26071 0.34595,2.50907 1.34043,3.27716 9.87459,8.11194 20.72177,15.03202 32.17629,20.69217 20.12803,9.93745 42.25311,15.78365 64.65864,17.12292 4.3904,0.35484 8.80123,0.14518 13.20004,0.11713 4.83249,-0.0973 9.67703,-0.14206 14.47844,-0.75611 17.29778,-1.86817 34.33696,-6.29724 50.2475,-13.36155 21.86599,-9.62013 41.68184,-23.88985 57.65052,-41.66516 17.37923,-19.27756 30.17675,-42.63336 37.13621,-67.63441 2.41799,-8.69646 4.18363,-17.58196 5.18593,-26.55264 0.22496,-1.4145 -0.35887,-2.89527 -1.56318,-3.6952 -16.14282,-13.07346 -34.67025,-23.21566 -54.44819,-29.59079 -15.1936,-4.90394 -31.07298,-7.79469 -47.04769,-8.14267 -2.53992,-0.0715 -5.08107,-0.0749 -7.62178,-0.061 z m 3.05664,24.88281 c 5.3987,-0.0683 10.80168,0.17555 16.15856,0.8669 6.98853,0.82783 13.92346,2.13863 20.71254,3.99638 1.26911,0.35571 2.76644,0.78365 4.11196,1.2062 1.36998,0.42632 2.62435,0.83972 4.01776,1.32864 9.83652,3.4233 19.22748,8.21655 27.54834,14.50351 2.90223,2.03865 5.86261,4.12314 7.99401,7.01032 1.61245,2.10675 2.8447,4.6545 2.7141,7.36813 0.11149,1.66423 -0.41711,3.26774 -1.17874,4.72498 -1.93635,4.03908 -5.59602,6.91179 -9.33649,9.20047 -6.09537,3.62781 -12.93988,5.81541 -19.85922,7.23392 -0.89836,0.17117 -2.05884,0.3985 -3.06716,0.55147 -1.85735,0.30417 -3.72575,0.53445 -5.59886,0.71611 -0.40196,0.0281 -1.19669,0.0979 -1.749,0.14197 -10.56078,0.73782 -21.30067,-0.0105 -31.51659,-2.88225 -4.29167,-1.19333 -8.36492,-3.01625 -12.42386,-4.82222 -0.72626,-0.37755 -1.53174,-0.25959 -2.31446,-0.2207 -1.25643,1.99776 -2.378,4.0881 -3.36109,6.23216 -0.0377,0.49224 -0.89624,1.28141 -0.32052,1.55176 4.90386,2.6775 10.05757,4.91993 15.44707,6.41946 7.42092,2.11618 15.11276,3.25381 22.81841,3.56151 5.03024,0.0867 10.07788,0.0511 15.08661,-0.45943 8.83022,-0.95199 17.58082,-3.0007 25.73058,-6.5758 0.54459,-0.24 1.08798,-0.4828 1.63215,-0.7238 0.96951,1.85358 1.59488,3.94075 1.32128,6.04884 -0.33745,3.95763 -2.98081,7.25205 -5.86255,9.77966 -5.2335,4.45916 -11.72787,7.13202 -18.27037,9.02869 -1.07441,0.30492 -2.19252,0.59618 -3.17259,0.82997 -6.02491,1.43695 -12.20067,2.26494 -18.39807,2.32084 -5.14712,0.15735 -10.30958,-0.0367 -15.40722,-0.79627 -4.68515,-0.64732 -9.47709,-1.70542 -13.87845,-3.14533 -4.87694,-1.5723 -9.55935,-3.77223 -13.78463,-6.68184 -0.71677,-0.38947 -1.3866,-1.10486 -2.2644,-0.87247 -1.21544,0.14706 -1.92405,1.3391 -2.68978,2.1748 -0.86601,1.19675 -2.0587,2.29615 -2.35765,3.79005 -0.16653,1.08671 0.61208,1.98148 1.47596,2.52937 5.59534,3.97157 11.92063,6.82389 18.47624,8.79894 13.10467,3.94099 27.03727,4.68451 40.59092,3.14251 6.63124,-0.75751 13.14344,-2.36247 19.44505,-4.54258 0.50939,-0.18239 0.10057,0.88282 0.18102,1.20293 -0.47558,4.23619 -3.40266,7.70635 -6.59523,10.30689 -5.41958,4.33169 -11.99193,6.95666 -18.63244,8.76903 -2.3139,0.62447 -4.83686,1.15375 -7.08334,1.5562 -5.7946,0.99126 -11.64195,1.69434 -17.5059,2.10709 -4.04746,0.20154 -8.12326,0.19152 -12.22493,0.21697 -2.85859,0.0334 -5.75275,0.0318 -8.55308,-0.27437 -3.78947,-0.31433 -7.62622,-0.73677 -11.31375,-1.28602 -9.98949,-1.5003 -19.83449,-4.07069 -29.20703,-7.85351 -1.64009,-0.67137 -3.46199,-1.45451 -5.1412,-2.24194 -4.3367,-2.01696 -8.66042,-4.42804 -12.56388,-7.01978 -3.11422,-2.07054 -6.11882,-4.32112 -8.79098,-6.94627 -3.19337,-3.06443 -6.43153,-6.14668 -8.9002,-9.84876 -4.28576,-6.14863 -7.25282,-13.36732 -7.76151,-20.88952 -0.11775,-3.87399 0.008,-7.80948 1.10267,-11.55419 1.71838,-6.5103 5.09079,-12.51375 9.35197,-17.69485 2.98774,-3.27799 6.11659,-6.44959 9.53497,-9.28081 7.20011,-5.66427 15.33328,-10.06674 23.82246,-13.46919 0.98057,-0.39282 2.21645,-0.86738 3.30427,-1.26458 7.85108,-2.86231 15.99238,-4.90426 24.24455,-6.20613 0.71694,-0.10067 1.67877,-0.25618 2.42695,-0.35744 4.95095,-0.75032 9.94638,-1.20291 14.95578,-1.23026 2.29276,-0.0424 4.5859,-0.0612 6.87899,-0.0764 z" />
      <path
         id="path34"
         style="fill:#2a7fff;stroke:none;stroke-width:0.753508"
         d="m 296.2793,408.44531 c -2.17603,4.13241 -4.70194,8.07175 -7.50617,11.80486 -0.44093,0.53971 -0.71574,1.15485 -0.6539,1.86192 -0.16612,0.70495 0.68932,1.0563 1.0075,1.59507 0.33831,0.67158 1.08067,0.0787 1.64087,0.0605 3.90121,-1.69881 7.79179,-3.44166 11.78816,-4.91563 5.39305,-2.04055 11.04994,-3.88143 16.68826,-5.38014 1.1386,-0.26967 2.26452,-0.57132 3.25018,-1.22663 1.19269,-0.64295 2.38538,-1.28589 3.57807,-1.92884 -1.87317,-0.41496 -3.73181,-0.95334 -5.61407,-1.29109 -4.26006,-0.0482 -8.52889,0.11404 -12.78242,-0.1679 -1.50316,-0.15407 -3.15722,-0.39442 -4.55469,-0.5957 -2.06728,-0.28524 -4.10064,-0.76684 -6.16992,-1.03711 -0.22396,0.4069 -0.44791,0.8138 -0.67187,1.2207 z" />
      <path
         id="path33"
         style="fill:#2a7fff;stroke:none;stroke-width:0.753508"
         d="m 299.23828,263.38281 c -8.1631,0.12739 -16.30722,0.99485 -24.35482,2.34701 -27.18041,4.63703 -53.17689,16.06448 -74.9572,32.97367 -1.09793,0.8535 -1.73031,2.15097 -2.62199,3.20049 -0.1594,0.36693 -1.14623,1.21524 -0.77579,1.27392 1.74709,-0.27413 3.53647,-0.34437 5.25668,-0.74821 6.73409,-2.49574 13.81411,-4.03695 20.9696,-4.62496 4.33351,-0.18784 8.68907,-0.25043 13.01402,0.12374 5.63802,0.56015 11.21963,1.69336 16.59616,3.48929 2.42112,0.79242 4.85662,1.73864 7.10576,2.73068 1.53802,0.68425 2.98658,1.38624 4.4249,2.13832 8.78032,4.56334 16.57328,10.93723 22.98292,18.46051 2.86884,2.72916 6.0968,5.06264 9.40831,7.2231 9.41215,6.04464 20.17726,9.99389 31.29461,11.30514 12.43032,1.52089 25.23892,-0.21405 36.82633,-4.95389 0.81384,-0.53508 1.74898,-0.77238 2.70304,-0.94202 6.75152,-1.40528 14.2059,1.9253 17.58785,7.95419 2.73197,4.60619 2.89721,10.48213 0.84109,15.37842 -4.56913,11.7172 -12.05557,22.29546 -21.6845,30.3984 -7.13701,6.04593 -15.41143,10.70309 -24.21463,13.84251 -0.8572,0.38749 -1.98199,0.60935 -2.34342,1.58964 -0.35558,0.62181 -0.71115,1.24363 -1.06673,1.86544 0.95178,0.29611 1.87138,0.82682 2.84373,0.97431 4.49872,-0.48393 8.98869,-1.08689 13.51192,-1.31028 7.34399,-0.39962 14.74095,-0.34423 22.02827,0.0542 9.9949,0.67716 19.93088,2.23402 29.65709,4.63335 11.28386,2.81 22.47754,6.80118 33.00196,11.92187 5.36264,2.57705 10.69921,5.44749 15.78289,8.63882 5.81487,3.60881 11.55628,7.58148 16.91726,11.92814 0.5713,0.45164 1.14261,0.90328 1.71391,1.35492 0.29177,-3.02485 0.61998,-6.05031 0.57354,-9.09412 0.0167,-5.19951 0.0965,-10.40609 -0.17867,-15.59993 -0.78942,-11.67679 -2.66013,-23.29007 -5.80727,-34.5681 -7.02969,-25.44009 -20.07416,-49.21538 -37.8803,-68.70965 -15.11467,-16.66027 -33.61064,-30.22308 -54.0283,-39.65987 -18.48849,-8.60053 -38.55105,-13.77047 -58.88695,-15.23543 -5.40183,-0.44347 -10.82624,-0.37833 -16.24127,-0.35361 z" />
      <path
         style="fill:none;stroke:#000000;stroke-width:5.66929"
         id="path1"
         d="m 168.46216,328.4986 a 75.185509,75.185509 0 0 1 77.68182,-27.92792 75.185509,75.185509 0 0 1 56.48937,60.19456 75.185509,75.185509 0 0 1 -32.80013,75.75346" />
      <path
         style="fill:none;stroke:#000000;stroke-width:5.66929"
         id="circle2"
         d="m 268.66478,437.32273 a 169.91925,169.91925 0 0 1 204.26103,11.53415" />
      <path
         style="fill:none;stroke:#000000;stroke-width:5.66929"
         id="circle3"
         d="M 365.86327,338.73562 A 75.185509,75.185509 0 0 1 280.01239,319.20971" />
      <path
         style="fill:none;stroke:#000000;stroke-width:5.66929"
         id="circle4"
         d="m 385.62773,357.87541 a 75.185509,75.185509 0 0 1 -88.61794,48.28292" />
      <path
         style="fill:none;stroke:#000000;stroke-width:5.66929"
         id="path5"
         d="m 365.03375,338.859 a 15.788958,15.788958 0 0 1 17.62243,5.0738 15.788958,15.788958 0 0 1 0.93863,18.31426" />
      <circle
         style="fill:#000000;stroke:#000000;stroke-width:5.66929"
         id="path24"
         cx="241.72142"
         cy="354.87561"
         r="12.029682" />
      <path
         style="fill:#cccccc;stroke:none;stroke-width:0.753508"
         d="m 356.33296,553.96572 c -28.33912,-1.29656 -53.75899,-9.97487 -70.84128,-24.18513 -1.99949,-1.66331 -6.86459,-6.48601 -8.31238,-8.23994 -11.09169,-13.43699 -14.01027,-28.3861 -8.34249,-42.73072 8.57945,-21.71374 35.01214,-38.62808 69.35387,-44.3797 4.08308,-0.68384 9.25453,-1.28456 14.48724,-1.68285 2.97191,-0.22621 13.40926,-0.31009 16.94608,-0.13618 24.11749,1.18587 46.40459,7.8825 62.99956,18.92957 1.29237,0.86032 4.36677,3.08327 4.51896,3.26744 0.0365,0.0442 0.85142,0.60368 1.81084,1.24321 4.1889,2.79229 7.04301,5.85011 8.70203,9.3231 1.58013,3.30787 1.66991,6.76682 0.26368,10.15829 -1.985,4.78731 -7.09461,9.39892 -14.29868,12.90509 -13.32633,6.48583 -32.03513,8.75715 -49.77497,6.04287 -7.45949,-1.14134 -14.92971,-3.42003 -20.72899,-6.3231 -1.13029,-0.56582 -2.06217,-1.01652 -2.07083,-1.00157 -0.80561,1.39055 -2.71899,4.91412 -2.71899,5.00715 0,0.19175 4.53709,2.38049 6.84489,3.30205 18.3116,7.31226 43.0406,7.94427 62.53437,1.59823 2.64537,-0.86117 5.89924,-2.14665 8.19498,-3.23751 2.11456,-1.00477 1.80728,-1.11764 2.90232,1.06608 1.86845,3.72609 1.9207,7.46536 0.15557,11.13489 -3.86837,8.04197 -15.25041,14.60869 -30.68245,17.70184 -10.20228,2.04492 -21.38705,2.3222 -32.00054,0.79331 -11.04625,-1.59122 -20.91118,-5.14095 -27.58418,-9.9257 -0.68843,-0.49363 -1.29923,-0.89384 -1.35734,-0.88935 -0.13509,0.0104 -3.41799,4.20094 -3.45957,4.41603 -0.0567,0.29303 3.11267,2.46812 5.74632,3.94364 8.0048,4.48475 18.59357,7.56626 29.90485,8.7028 6.84185,0.68746 15.55549,0.63919 22.12959,-0.1226 7.77984,-0.90151 15.56104,-2.78297 21.61752,-5.22701 l 0.6841,-0.27607 0.17162,0.88982 c 0.0944,0.4894 0.16443,1.51782 0.15565,2.28538 -0.0547,4.78131 -3.21866,9.65198 -8.95726,13.78897 -6.48646,4.67613 -16.4815,8.30345 -27.16204,9.85743 -6.66455,0.96967 -11.28686,1.49098 -16.01571,1.80627 -3.7016,0.24681 -12.3447,0.3528 -15.81634,0.19397 z"
         id="path27" />
      <circle
         style="fill:none;stroke:#000000;stroke-width:7.1811;stroke-dasharray:none"
         id="path2"
         cx="303.37354"
         cy="432.31668"
         r="169.91925" />
    </g>
  </g>
</svg>
