<?xml version="1.0" encoding="UTF-8" standalone="no"?>
<!-- Created with Inkscape (http://www.inkscape.org/) -->

<svg
   width="91.815598mm"
   height="91.815598mm"
   viewBox="0 0 347.01959 347.01959"
   version="1.1"
   id="svg1"
   sodipodi:docname="mallard-sq.svg"
   inkscape:version="1.4 (86a8ad7, 2024-10-11)"
   xmlns:inkscape="http://www.inkscape.org/namespaces/inkscape"
   xmlns:sodipodi="http://sodipodi.sourceforge.net/DTD/sodipodi-0.dtd"
   xmlns="http://www.w3.org/2000/svg"
   xmlns:svg="http://www.w3.org/2000/svg">
  <sodipodi:namedview
     id="namedview1"
     pagecolor="#ffffff"
     bordercolor="#666666"
     borderopacity="1.0"
     inkscape:showpageshadow="2"
     inkscape:pageopacity="0.0"
     inkscape:pagecheckerboard="0"
     inkscape:deskcolor="#d1d1d1"
     inkscape:document-units="mm"
     inkscape:zoom="2.1511754"
     inkscape:cx="178.97192"
     inkscape:cy="185.71242"
     inkscape:window-width="3200"
     inkscape:window-height="1711"
     inkscape:window-x="2391"
     inkscape:window-y="-9"
     inkscape:window-maximized="1"
     inkscape:current-layer="layer1" />
  <defs
     id="defs1" />
  <g
     id="layer1"
     transform="translate(-93.774691,-259.93467)">
    <path
       id="path3"
       style="fill:#2a7fff;fill-opacity:1;stroke:none;stroke-width:1.18024;stroke-opacity:1"
       d="m 263.7825,265.24326 c -24.23467,0.4974 -48.35536,6.30193 -70.11813,16.98788 -7.64934,3.71152 -15.03171,7.97864 -22.00429,12.84655 -1.99437,1.40587 -4.07108,2.7202 -5.9225,4.31206 -0.6832,0.59607 -0.58209,1.60981 -0.88575,2.40822 0.0289,0.44823 -0.75541,1.63589 0.0312,1.39518 1.64166,-0.23512 3.30516,-0.44222 4.86238,-1.01777 5.21833,-1.58941 10.59979,-2.68502 16.03315,-3.18212 4.87358,-0.23107 9.76963,-0.27749 14.63609,0.10732 3.5139,0.39581 7.15331,1.06241 10.48891,1.89073 1.41126,0.35513 2.76869,0.72531 4.21163,1.17448 7.92779,2.43689 15.41926,6.2402 22.12626,11.11263 0.73943,0.54759 1.69843,1.25925 2.50394,1.89815 4.1133,3.14512 7.57852,7.00862 11.18624,10.69543 3.34944,3.35943 7.31444,6.02938 11.33751,8.50924 9.73237,5.87581 20.85698,9.33887 32.16453,10.33909 4.57342,0.19315 9.1679,0.20588 13.7316,-0.18019 7.01608,-0.83882 13.98349,-2.46632 20.48633,-5.26367 1.15678,-0.76207 2.62518,-0.75644 3.96089,-0.98399 6.16353,-0.67601 12.55019,2.47007 15.76182,7.77762 2.4488,3.94254 3.0947,8.92648 1.88163,13.39012 -1.47044,4.60383 -3.59933,8.98046 -6.00863,13.16195 -7.94587,13.56636 -20.16864,24.59941 -34.53907,31 -0.35636,0.15872 -1.10161,0.47768 -1.60684,0.69774 -13.96179,5.88122 -29.68896,7.48041 -44.54108,4.47003 -0.88362,-0.20365 -1.93977,-0.48425 -2.67631,0.21851 -1.22902,1.10944 -1.77019,2.76283 -2.66606,4.12546 -3.30869,5.70795 -7.43295,10.91292 -12.03314,15.63084 -1.44749,1.83031 -2.67944,3.82919 -4.0448,5.72374 -0.24931,0.42052 -1.14844,1.39077 -0.17013,0.77273 5.01693,-2.32305 9.98514,-4.74783 14.97352,-7.13043 11.83817,-5.54367 24.25587,-9.55793 37.02859,-12.17299 16.83953,-3.41499 34.20535,-4.10334 51.28491,-2.32048 2.21905,0.2373 4.25632,0.50241 6.45528,0.83079 7.28669,1.08139 14.4949,2.6739 21.57224,4.71461 1.4711,0.43487 3.15498,0.9359 4.69532,1.43496 14.50134,4.6526 28.3831,11.25479 41.07231,19.68364 4.10975,2.67938 8.08254,5.56315 11.95103,8.5779 0.66441,0.52926 1.44681,0.8668 2.3074,0.81305 0.75585,0.2802 1.05947,-0.17733 1.22523,-0.85976 0.70257,-1.5091 0.52482,-3.23462 0.67263,-4.85386 0.24498,-6.76743 0.27669,-13.54708 0.029,-20.31486 -0.46545,-8.33337 -1.62018,-16.62643 -3.31916,-24.79622 -3.6694,-17.36964 -10.06945,-34.16646 -18.97709,-49.52702 -13.97364,-24.30295 -34.16873,-44.97776 -58.12142,-59.54049 -23.2753,-14.22527 -50.06391,-22.626 -77.29098,-24.26834 -4.57532,-0.29234 -9.16266,-0.37031 -13.74626,-0.28846 z" />
    <path
       style="fill:none;stroke:#ffdd55;stroke-width:5.66929"
       id="circle4"
       d="m 349.53868,359.00319 a 75.185509,75.185509 0 0 1 -88.61794,48.28292" />
    <path
       id="path32"
       style="fill:#00d455;stroke:none;stroke-width:1.06562;fill-opacity:1"
       d="m 189.92267,300.71372 c -3.39468,0.0283 -6.78786,0.29152 -10.12155,0.95088 -11.3891,2.00115 -22.31577,6.64022 -31.58191,13.57078 -3.92604,2.85559 -7.52868,6.15833 -10.61024,9.91487 -7.81496,9.42342 -14.6957,19.63629 -20.29193,30.53113 -7.49567,14.43018 -12.94737,29.9322 -15.95359,45.91892 -1.26836,6.7756 -2.225586,13.61887 -2.679876,20.4987 -0.27835,7.43692 -0.32665,14.88786 -0.038,22.32518 1.494336,20.595 6.483006,40.98911 15.189456,59.73805 10.59061,22.98648 26.45495,43.49363 45.94133,59.63171 0.99474,0.84175 1.98947,1.6835 2.98421,2.52525 0.15747,-3.131 0.31595,-6.26544 0.82472,-9.36359 1.73541,-12.39804 4.88777,-24.5946 9.35497,-36.28876 0.29306,-0.75259 0.69562,-1.77835 1.03419,-2.63543 0.9988,-2.47327 2.12933,-5.07838 3.19042,-7.40558 1.91619,-4.14418 3.9962,-8.21208 6.23828,-12.18946 0.46876,-0.81256 1.06774,-1.87195 1.60417,-2.77098 5.20462,-8.79784 11.2103,-17.12682 17.97395,-24.79347 0.42975,-0.47048 1.07042,-1.18962 1.58109,-1.7555 8.86593,-9.75606 18.84521,-18.50419 29.71969,-25.95918 0.82759,-0.5467 1.52102,-1.25827 2.25586,-1.91813 -0.84518,-1.62478 -1.90104,-3.12056 -2.92187,-4.63672 8.21868,-5.60951 15.44244,-12.72778 20.89143,-21.07098 6.49984,-9.87342 10.52065,-21.33525 11.82357,-33.07177 0.34373,-4.97059 0.32818,-9.96865 0.0305,-14.94127 -0.56068,-5.68113 -1.85211,-11.28504 -3.66698,-16.69404 -2.60609,-7.63093 -6.43943,-14.86156 -11.40149,-21.22284 -2.40502,-2.97041 -5.26117,-5.53071 -7.79032,-8.38973 -0.97606,-1.49987 -2.5112,-2.53462 -3.84582,-3.69916 -8.2891,-6.84443 -18.0865,-11.83095 -28.49344,-14.51954 -4.97181,-1.26828 -10.0614,-2.23217 -15.20896,-2.25396 -2.01002,-0.0588 -4.02131,-0.051 -6.03186,-0.0254 z m 16.58984,42.42773 c 5.16366,0.21609 9.9915,3.92866 11.42161,8.91452 1.49175,4.80919 0.0748,10.48379 -3.8212,13.76219 -4.56113,3.9792 -11.96915,4.14732 -16.64129,0.26229 -3.57965,-2.81999 -5.27025,-7.63902 -4.56935,-12.10126 0.57129,-4.3942 3.66005,-8.32037 7.78821,-9.92481 1.83013,-0.80129 3.84287,-1.00915 5.82202,-0.91293 z" />
    <path
       id="path29"
       style="fill:#ffdd55;stroke:none;stroke-width:2.13124"
       d="m 260.20587,339.41489 c 0.55384,1.8583 1.54901,3.56315 2.29447,5.35279 6.61302,15.08364 7.74998,32.35231 3.89373,48.31052 -0.80247,3.5315 -2.10524,6.91528 -3.13405,10.3801 -0.26698,0.90186 -0.49938,1.91777 0.0675,2.75368 0.11191,0.70567 0.94178,0.62888 1.47637,0.83627 2.97656,0.48869 5.97612,0.8545 8.9743,1.18109 5.96257,0.2445 11.97517,0.032 17.84469,-1.113 15.02514,-2.73608 29.18947,-10.14532 39.8572,-21.09495 7.35104,-7.50385 13.08552,-16.59309 16.68287,-26.46197 0.75045,-2.35675 0.62714,-4.87794 0.49024,-7.31445 -0.49931,-3.75742 -3.00879,-6.93597 -5.90821,-9.22852 -2.44906,-1.99198 -5.65777,-2.78209 -8.76165,-2.84758 -2.94287,0.0599 -5.60053,1.51355 -8.36289,2.35919 -5.75206,1.99455 -11.73018,3.36235 -17.79928,3.89855 -0.67069,0.0574 -1.66248,0.14574 -2.45877,0.1874 -4.58943,0.30727 -9.20616,0.22177 -13.77756,-0.29482 -0.71085,-0.0854 -1.78209,-0.21932 -2.49972,-0.32832 -5.11771,-0.75053 -10.15217,-2.05165 -15.00419,-3.84161 -0.83507,-0.31763 -1.92897,-0.73419 -2.8527,-1.12569 -3.804,-1.60757 -7.46059,-3.5431 -11.30003,-5.07104 -0.66357,-0.36438 -0.009,0.94703 -0.0754,1.34236 0.11771,0.70667 0.23543,1.41333 0.35314,2.12 z" />
    <path
       style="fill:none;stroke:#ffdd55;stroke-width:5.66929"
       id="circle3"
       d="M 329.77422,339.8634 A 75.185509,75.185509 0 0 1 243.92334,320.33749" />
    <path
       style="fill:#00d455;stroke:#00d656;stroke-width:5.66929;fill-opacity:1;stroke-opacity:1"
       id="path1"
       d="m 132.37311,329.62638 a 75.185509,75.185509 0 0 1 77.68182,-27.92792 75.185509,75.185509 0 0 1 56.48937,60.19456 75.185509,75.185509 0 0 1 -32.80013,75.75346" />
    <path
       id="path31"
       style="fill:#c87137;stroke:none;stroke-width:1.06562"
       d="m 324.51837,410.77622 c -9.7462,0.0419 -19.4717,1.13354 -29.04534,2.92435 -25.35913,4.80638 -49.55902,15.55452 -70.14942,31.11411 -20.75182,15.63582 -37.83312,36.11848 -49.4147,59.38271 -8.8884,17.75508 -14.58711,37.097 -16.7837,56.82901 -0.24859,1.26071 0.34595,2.50907 1.34043,3.27716 9.87459,8.11194 20.72177,15.03202 32.17629,20.69217 20.12803,9.93745 42.25311,15.78365 64.65864,17.12292 4.3904,0.35484 8.80123,0.14518 13.20004,0.11713 4.83249,-0.0973 9.67703,-0.14206 14.47844,-0.75611 17.29778,-1.86817 34.33696,-6.29724 50.2475,-13.36155 21.86599,-9.62013 41.68184,-23.88985 57.65052,-41.66516 17.37923,-19.27756 30.17675,-42.63336 37.13621,-67.63441 2.41799,-8.69646 4.18363,-17.58196 5.18593,-26.55264 0.22496,-1.4145 -0.35887,-2.89527 -1.56318,-3.6952 -16.14282,-13.07346 -34.67025,-23.21566 -54.44819,-29.59079 -15.1936,-4.90394 -31.07298,-7.79469 -47.04769,-8.14267 -2.53992,-0.0715 -5.08107,-0.0749 -7.62178,-0.061 z m 3.05664,24.88281 c 5.3987,-0.0683 10.80168,0.17555 16.15856,0.8669 6.98853,0.82783 13.92346,2.13863 20.71254,3.99638 1.26911,0.35571 2.76644,0.78365 4.11196,1.2062 1.36998,0.42632 2.62435,0.83972 4.01776,1.32864 9.83652,3.4233 19.22748,8.21655 27.54834,14.50351 2.90223,2.03865 5.86261,4.12314 7.99401,7.01032 1.61245,2.10675 2.8447,4.6545 2.7141,7.36813 0.11149,1.66423 -0.41711,3.26774 -1.17874,4.72498 -1.93635,4.03908 -5.59602,6.91179 -9.33649,9.20047 -6.09537,3.62781 -12.93988,5.81541 -19.85922,7.23392 -0.89836,0.17117 -2.05884,0.3985 -3.06716,0.55147 -1.85735,0.30417 -3.72575,0.53445 -5.59886,0.71611 -0.40196,0.0281 -1.19669,0.0979 -1.749,0.14197 -10.56078,0.73782 -21.30067,-0.0105 -31.51659,-2.88225 -4.29167,-1.19333 -8.36492,-3.01625 -12.42386,-4.82222 -0.72626,-0.37755 -1.53174,-0.25959 -2.31446,-0.2207 -1.25643,1.99776 -2.378,4.0881 -3.36109,6.23216 -0.0377,0.49224 -0.89624,1.28141 -0.32052,1.55176 4.90386,2.6775 10.05757,4.91993 15.44707,6.41946 7.42092,2.11618 15.11276,3.25381 22.81841,3.56151 5.03024,0.0867 10.07788,0.0511 15.08661,-0.45943 8.83022,-0.95199 17.58082,-3.0007 25.73058,-6.5758 0.54459,-0.24 1.08798,-0.4828 1.63215,-0.7238 0.96951,1.85358 1.59488,3.94075 1.32128,6.04884 -0.33745,3.95763 -2.98081,7.25205 -5.86255,9.77966 -5.2335,4.45916 -11.72787,7.13202 -18.27037,9.02869 -1.07441,0.30492 -2.19252,0.59618 -3.17259,0.82997 -6.02491,1.43695 -12.20067,2.26494 -18.39807,2.32084 -5.14712,0.15735 -10.30958,-0.0367 -15.40722,-0.79627 -4.68515,-0.64732 -9.47709,-1.70542 -13.87845,-3.14533 -4.87694,-1.5723 -9.55935,-3.77223 -13.78463,-6.68184 -0.71677,-0.38947 -1.3866,-1.10486 -2.2644,-0.87247 -1.21544,0.14706 -1.92405,1.3391 -2.68978,2.1748 -0.86601,1.19675 -2.0587,2.29615 -2.35765,3.79005 -0.16653,1.08671 0.61208,1.98148 1.47596,2.52937 5.59534,3.97157 11.92063,6.82389 18.47624,8.79894 13.10467,3.94099 27.03727,4.68451 40.59092,3.14251 6.63124,-0.75751 13.14344,-2.36247 19.44505,-4.54258 0.50939,-0.18239 0.10057,0.88282 0.18102,1.20293 -0.47558,4.23619 -3.40266,7.70635 -6.59523,10.30689 -5.41958,4.33169 -11.99193,6.95666 -18.63244,8.76903 -2.3139,0.62447 -4.83686,1.15375 -7.08334,1.5562 -5.7946,0.99126 -11.64195,1.69434 -17.5059,2.10709 -4.04746,0.20154 -8.12326,0.19152 -12.22493,0.21697 -2.85859,0.0334 -5.75275,0.0318 -8.55308,-0.27437 -3.78947,-0.31433 -7.62622,-0.73677 -11.31375,-1.28602 -9.98949,-1.5003 -19.83449,-4.07069 -29.20703,-7.85351 -1.64009,-0.67137 -3.46199,-1.45451 -5.1412,-2.24194 -4.3367,-2.01696 -8.66042,-4.42804 -12.56388,-7.01978 -3.11422,-2.07054 -6.11882,-4.32112 -8.79098,-6.94627 -3.19337,-3.06443 -6.43153,-6.14668 -8.9002,-9.84876 -4.28576,-6.14863 -7.25282,-13.36732 -7.76151,-20.88952 -0.11775,-3.87399 0.008,-7.80948 1.10267,-11.55419 1.71838,-6.5103 5.09079,-12.51375 9.35197,-17.69485 2.98774,-3.27799 6.11659,-6.44959 9.53497,-9.28081 7.20011,-5.66427 15.33328,-10.06674 23.82246,-13.46919 0.98057,-0.39282 2.21645,-0.86738 3.30427,-1.26458 7.85108,-2.86231 15.99238,-4.90426 24.24455,-6.20613 0.71694,-0.10067 1.67877,-0.25618 2.42695,-0.35744 4.95095,-0.75032 9.94638,-1.20291 14.95578,-1.23026 2.29276,-0.0424 4.5859,-0.0612 6.87899,-0.0764 z" />
    <path
       style="fill:none;stroke:#ffdd55;stroke-width:5.66929"
       id="path5"
       d="m 329.47885,339.96624 c 6.35499,-2.24294 12.89893,-0.1845 17.08828,5.09434 4.18935,5.27883 4.56635,12.63479 0.93863,18.31426"
       sodipodi:nodetypes="csc" />
    <circle
       style="fill:#000000;stroke:#000000;stroke-width:5.66929"
       id="path24"
       cx="205.63237"
       cy="356.00339"
       r="12.029682" />
    <path
       style="fill:#cccccc;stroke:none;stroke-width:0.753508"
       d="m 320.24391,555.0935 c -28.33912,-1.29656 -53.75899,-9.97487 -70.84128,-24.18513 -1.99949,-1.66331 -6.86459,-6.48601 -8.31238,-8.23994 -11.09169,-13.43699 -14.01027,-28.3861 -8.34249,-42.73072 8.57945,-21.71374 35.01214,-38.62808 69.35387,-44.3797 4.08308,-0.68384 9.25453,-1.28456 14.48724,-1.68285 2.97191,-0.22621 13.40926,-0.31009 16.94608,-0.13618 24.11749,1.18587 46.40459,7.8825 62.99956,18.92957 1.29237,0.86032 4.36677,3.08327 4.51896,3.26744 0.0365,0.0442 0.85142,0.60368 1.81084,1.24321 4.1889,2.79229 7.04301,5.85011 8.70203,9.3231 1.58013,3.30787 1.66991,6.76682 0.26368,10.15829 -1.985,4.78731 -7.09461,9.39892 -14.29868,12.90509 -13.32633,6.48583 -32.03513,8.75715 -49.77497,6.04287 -7.45949,-1.14134 -14.92971,-3.42003 -20.72899,-6.3231 -1.13029,-0.56582 -2.06217,-1.01652 -2.07083,-1.00157 -0.80561,1.39055 -2.71899,4.91412 -2.71899,5.00715 0,0.19175 4.53709,2.38049 6.84489,3.30205 18.3116,7.31226 43.0406,7.94427 62.53437,1.59823 2.64537,-0.86117 5.89924,-2.14665 8.19498,-3.23751 2.11456,-1.00477 1.80728,-1.11764 2.90232,1.06608 1.86845,3.72609 1.9207,7.46536 0.15557,11.13489 -3.86837,8.04197 -15.25041,14.60869 -30.68245,17.70184 -10.20228,2.04492 -21.38705,2.3222 -32.00054,0.79331 -11.04625,-1.59122 -20.91118,-5.14095 -27.58418,-9.9257 -0.68843,-0.49363 -1.29923,-0.89384 -1.35734,-0.88935 -0.13509,0.0104 -3.41799,4.20094 -3.45957,4.41603 -0.0567,0.29303 3.11267,2.46812 5.74632,3.94364 8.0048,4.48475 18.59357,7.56626 29.90485,8.7028 6.84185,0.68746 15.55549,0.63919 22.12959,-0.1226 7.77984,-0.90151 15.56104,-2.78297 21.61752,-5.22701 l 0.6841,-0.27607 0.17162,0.88982 c 0.0944,0.4894 0.16443,1.51782 0.15565,2.28538 -0.0547,4.78131 -3.21866,9.65198 -8.95726,13.78897 -6.48646,4.67613 -16.4815,8.30345 -27.16204,9.85743 -6.66455,0.96967 -11.28686,1.49098 -16.01571,1.80627 -3.7016,0.24681 -12.3447,0.3528 -15.81634,0.19397 z"
       id="path27" />
    <circle
       style="fill:none;stroke:#000000;stroke-width:7.1811;stroke-dasharray:none"
       id="path2"
       cx="267.28448"
       cy="433.44446"
       r="169.91925" />
  </g>
</svg>
